<svg version="1.2" xmlns="http://www.w3.org/2000/svg" viewBox="0 0 1056 1056" width="1056" height="1056"><defs><clipPath clipPathUnits="userSpaceOnUse" id="cp1"><path d="m0 0h1056v1056h-1056z"/></clipPath></defs><style>.a{fill:#494949}</style><g clip-path="url(#cp1)"><path fill-rule="evenodd" class="a" d="m170.1 243.3v-116.2c88.4-25 213.1-50.3 363.6-49.5 102.1 0.5 192 12.9 266.4 28.7-39 13.9-76.9 20.2-119.1 20.2-30.3 0-63.6-3.1-108-9.9-38-5.9-74.4-8.8-108-8.8-62.7 0-118.7 10.3-166.2 30.7-53.1 22.7-96.3 57.9-128.7 104.8zm714.2 62.3v357.1q-0.4 5.5-0.9 11c-14.4 140.7-159.9 250.3-301.8 323.8l-34.7-22c-27.9-19.6-55.3-40.7-80.5-68.3-28.1-30.8-46.4-61.7-52.7-89.2-5.4-23.2-2-42.5 10.5-60.6 12.4-17.9 25.5-24.5 48.4-24.5 13.5 0 28.8 2.4 43.6 4.7 15.8 2.5 32.2 5.1 48.3 5.1 18.8 0 34.9-3.5 49-10.7 41.2-21 71.3-59.8 89.4-115.2 7.6-23 12.4-46.6 15.6-68.8q2.6-1.8 5.1-3.6c24-17.4 44.9-40 62.3-67 17.9-27.9 31.6-59.8 40.3-93.7 20.5-18.8 38.4-41.9 53.4-69.3q2.4-4.4 4.7-8.8zm-158.3 163.6l3.8-48.8-75.1 23.4c-19.7 6.2-39.6 9.1-60.9 9.1-29.8 0-59.6-5.7-91.2-11.8-35.8-6.8-72.8-14-114.3-14-7.6 0-15.2 0.3-22.6 0.8-61.3 4-119.4 26.6-163.7 63.6-9.7 8.1-18.6 16.8-26.7 26 3.2-21.8 9.4-44 19.7-65.8 47.1-100 119.3-124 201-124 75.3 0 158.8 20.4 238 20.4 53.1 0 104.3-9.1 149.9-39.8-2.5 56.5-21.8 117.1-57.9 160.9zm-345.7 257.9c-74.8 108 23 230.7 116.2 283.1-132.1-66.6-284.4-163.9-322.2-315-1.6-12.7-2-25.7-1.3-38.9 5.6-103.1 97.5-168.7 196.2-175.2q9.7-0.6 19.1-0.6c72.4 0 135.2 25.8 205.5 25.8 24.4 0 49.8-3.1 76.7-11.5-4.7 61.1-16.9 156.9-81.2 189.6-7 3.6-15.4 4.9-24.8 4.9-25.6 0-58.7-9.7-91.9-9.7-32.9 0-66 9.5-92.3 47.5zm458.4-449.6l3.2-72.6-87.8 59.1c-31.2 21-69.4 30.8-120.1 30.8-36.8 0-76.7-5.1-115.2-10-40.5-5.1-82.2-10.4-122.8-10.4-55.1 0-100.5 10.1-138.9 30.9-23 12.5-43.9 29-62 49.2-7.8 8.6-15.1 18-22.1 28.2 5-34.2 14.8-67.3 33.6-97.8 58.5-94.7 157.1-123.8 258.4-123.8 33.5 0 67.2 3.2 99.9 8.2 42 6.5 79.8 10.5 116.1 10.5 67.7 0 129.9-14.1 203.3-52.7-10.4 50.2-22.9 104.3-45.6 150.4z"/></g></svg>