<svg version="1.2" xmlns="http://www.w3.org/2000/svg" viewBox="0 0 1056 1056" width="1056" height="1056"><defs><clipPath clipPathUnits="userSpaceOnUse" id="cp1"><path d="m0 0h1056v1056h-1056z"/></clipPath></defs><style>.a{fill:#203b1f}</style><g clip-path="url(#cp1)"><path class="a" d="m734.6 741l6.6-6.6 26-26 62.4-62.4 134-134-93.8-93.7-5.2 5.2-18.9 18.9-18.8-18.9-32.3-32.3-7.7 7.7-0.7 0.7-7.4 7.4 32.3 32.3 18.8 18.9-18.8 18.8-3.6 3.6 59.5 56.8-176.6 181.3q7.7 4.4 15.3 8.5c10.2 5.5 19.8 10.2 28.9 13.8z"/><path class="a" d="m517.3 896.4l-86.9-90v44.8 24.5l84.8 84.8 126.8-126.8c-13.1-8.8-25.7-17.8-37.7-26.6z"/><path class="a" d="m233.9 602.9l-63.1-65.5 83.3-80.3c-18.2-24-36.7-50-54.4-78l-133 132.9 90.8 90.9h24.5z"/><path fill-rule="evenodd" class="a" d="m414.2 641.1l-10.5 10.5v199.6h-221.7v-221.7h199.6l10.8-10.7q10.8 11.3 21.8 22.3zm-41.8 178.6v-80l-78 80-79.3-79.3 79.2-79.6h-79.2v158.9zm0-80v-78.9h-78.1zm-78.2-41.2l-41.5 41.9 41.6 41.6 40.3-42.3z"/><path class="a" d="m580.9 392.6c-20.5-20.3-41.2-40.2-62.2-59.7-16.6-15.5-33.8-30.2-51.3-44.4l-11 10.6q11.2 8.9 22 18.2c31.6 27.4 63.1 55.1 93.5 84.2z"/><path class="a" d="m758.7 596.2c-35.4-46-71.9-91.2-110.5-133.5-2.8-3.1-5.7-6.2-8.6-9.3l-8.5 8.5c44.1 47.7 85.1 98.8 120.4 155.9l13.3-13.6q-3.1-4-6.1-8z"/><path class="a" d="m855.6 758.3c-9.7-23.5-20.9-45.9-33.1-67.4l-24.2 24.2c1.2 4.8 2.3 9.8 3.1 14.8 5 31.4-7.4 48.7-34.7 47.4-18.8-0.9-36.5-6.8-53.7-14.7q-2.6-1.2-5.2-2.4 0 0-0.1-0.1-2.4-1.1-4.9-2.4-0.2-0.1-0.4-0.2-2.2-1.1-4.5-2.3-0.3-0.2-0.7-0.3-2.4-1.3-4.9-2.6-5.7-3-11.2-6.2-0.2-0.1-0.3-0.1-5.4-3.1-10.8-6.3c-48.7-28.8-93.7-64.7-137.1-103.5q-30-26.7-58.7-55.1-5.4-5.4-10.9-10.9-0.1-0.1-0.2-0.3-5.5-5.5-10.8-11c-38.9-40.3-75.8-83.3-110.1-129.5-8.2-11.1-16.4-22.4-24.2-33.9q-3.2-4.6-6.3-9.3-0.5-0.7-1-1.4-4.7-7.1-9.2-14.4-0.4-0.6-0.8-1.2c-5.2-8.4-10.2-17-14.9-25.7q-0.1-0.2-0.2-0.4-4.4-8-8.5-16.3 0-0.1-0.1-0.3-4.1-8.3-7.9-16.9c-2.2-5.1-4.3-10.3-6.4-15.5-4.1-10.9-7.3-22.5-9.6-34.1-5.7-29.8 6-47 36.8-47.8 10.2 0.2 21 2.8 32.2 6.8l21.5-21.6c-26.4-16.5-53.8-30.9-82.3-42.5-21.9-8.9-44.3-15.8-67.7-14.6-29.7 1.5-44.3 21.6-41.5 56.7 0.2 1.9 0.4 3.9 0.7 5.9 3.6 28.1 13.7 53.5 25.2 78.1 14 29.7 29.9 57.8 47 84.8q1.2 1.9 2.4 3.8 2.4 3.6 4.7 7.2 1.2 1.9 2.5 3.7 2.4 3.7 4.9 7.4 0.9 1.4 1.8 2.7c8.4 12.4 17.1 24.5 25.9 36.4q0.4 0.6 0.8 1.1c12.8 17.3 26 34.2 39.4 50.9 36.4 45.3 74.5 88.3 114.2 129.1q3.8 4 7.7 7.9 67.9 69 142.1 129.3c19.1 15.6 38.5 30.7 58.3 45q2.3 1.7 4.6 3.4 3.7 2.6 7.4 5.2 1 0.8 2.1 1.5 4.3 3 8.7 6 0.3 0.2 0.6 0.4 4.7 3.2 9.4 6.3c28.1 18.6 57.1 35.4 87.5 49.2 25.6 11.7 51.7 21.5 73.2 21.6 41.2-0.8 57.6-22.4 51-62.8-3.5-21.6-10.4-43-18.6-62.8z"/><path class="a" d="m327.6 251.2l-36.7 36.7c12.6 31.6 29.6 60.6 47.8 87.6l24.1-23.2 154.5-149 129.3 123.5 65.9-65.9-197.3-197.3-127.7 127.6z"/><path class="a" d="m535 476.2l-62.7 62.6q10.8 11.1 22 22.2l64.2-64.1 11.6-11.7 42.8-42.7 8.5-8.5 19-19 66.7 66.8 27-27.1 30.8 30.8 23.3-23.3 4-4-51.1-51.2 26.3-26.3 0.3-0.3 0.4-0.4 8.8-8.8 17.7-17.7 51.1 51.2 27.3-27.4-30.7-30.7 27.1-27.1-66.8-66.8 25.5-25.5-22.1-22.1-259.4 259.4z"/></g></svg>