<svg version="1.2" xmlns="http://www.w3.org/2000/svg" viewBox="0 0 1056 1056" width="1056" height="1056"><defs><clipPath clipPathUnits="userSpaceOnUse" id="cp1"><path d="m0 0h1056v1056h-1056z"/></clipPath></defs><style>.a{fill:#f00}</style><g clip-path="url(#cp1)"><path class="a" d="m708.8 501.9l-12 27.9 90.4-8.1c43.8 35.3 88.5 69.9 133.6 103.3l-231.7-61.6-1.3 27.3 366 97.3-59.6-42.6c-67.5-48.1-133.9-98.8-198.6-151.2l-68.3 6.1z"/><path class="a" d="m270 492l13.9-25.1-39.6-5c0.7-2.8 1.5-5.7 2.3-8.6 27-100.7 50.4-203.4 69.8-306.2l52.5 202.6 15.3-47.3-72.7-280.6-10.5 60.9c-21.2 121.9-48.1 244.3-80.1 363.7q-5.2 19.1-10.6 38.2l43.2 5.4z"/><path class="a" d="m268.1 674l-151.2 165.3c38-99.3 75.4-202.3 106.5-304.8l21.6 2.7 13.9-25.1-27.8-3.5-26.8-3.3c-38.8 131.6-88.8 264.8-137.8 390.5l-26 66.6 243.9-266.7z"/><path class="a" d="m432.6 304l-37.1-143c88.5 92.8 182.1 182.2 278.7 266.1q15.7 13.6 31.6 27.1l-42.3 3.8 37.6 23.4 25-2.2 46.1-4.2c-27.2-22.4-54.1-45.1-80.5-68-109-94.7-214.1-196.3-312.3-302.2l-36-38.6 58.2 224.6z"/><path class="a" d="m685.7 638.1l187.6 48.9c-64.2 7.8-128.1 18.5-191.3 32.2l-1.3 27.5c88.5-19.4 178.3-33 268.4-40.8l77.3-6.6-339.5-88.4z"/><path class="a" d="m358.9 815.2c-81.8 30.8-151.4 62.3-210.5 91.4l163.6-174-16.2-21.7-273.2 290.5 70-36.6c68.7-35.9 155.3-78.6 264.4-120.4z"/><path class="a" d="m660 614.9l-12 27.8-64-33.5-6.8 15.1-78.8-35.2-16.4 31.7-100.3-44.7 29.2-55.2 30.6 9.7 49.3-19.9 2.4-21.7-154.4-66.3-95.8 173.3 144.2 192.6-8.2 131.5 119.9-46.2-0.2 40.9 115.1-46.2-5.2-76.1 45.8-53.8z"/><path class="a" d="m442.6 558.9l-18.5-5.9-5.5 10.3 51.3 22.9 16.4-31.7 77.5 34.6 7.6-16.6 63.6 33.2 45.6-105.6-59.3-36.9 8.6-19.1-69.8-26.2 8.3-15.4-86.5-30.5 7.3-15-83.2-35.4-28.6 88.6 144.5 62.1-6.3 57.2z"/></g></svg>